<svg width="21" height="21" viewBox="0 0 21 21" fill="none" xmlns="http://www.w3.org/2000/svg">
<path d="M4.6875 21H0.328125V6.98438H4.6875V21ZM2.48438 5.10938C1.125 5.10938 0 3.9375 0 2.53125C0 1.17188 1.125 0.046875 2.48438 0.046875C3.89062 0.046875 5.01562 1.17188 5.01562 2.53125C5.01562 3.9375 3.89062 5.10938 2.48438 5.10938ZM20.9531 21H16.6406V14.2031C16.6406 12.5625 16.5938 10.5 14.3438 10.5C12.0938 10.5 11.7656 12.2344 11.7656 14.0625V21H7.40625V6.98438H11.5781V8.90625H11.625C12.2344 7.82812 13.6406 6.65625 15.75 6.65625C20.1562 6.65625 21 9.5625 21 13.3125V21H20.9531Z" fill="white"/>
</svg>
