<svg width="21" height="26" viewBox="0 0 21 26" fill="none" xmlns="http://www.w3.org/2000/svg">
<path d="M0.291992 24.0506V1.94926C0.292452 1.67273 0.367279 1.40142 0.508633 1.16375C0.649988 0.926088 0.852666 0.730815 1.09543 0.5984C1.33819 0.465985 1.6121 0.401303 1.88845 0.41113C2.1648 0.420958 2.43342 0.504932 2.66616 0.654256L19.8588 11.7018C20.0765 11.8413 20.2556 12.0333 20.3797 12.2601C20.5038 12.487 20.5688 12.7414 20.5688 12.9999C20.5688 13.2585 20.5038 13.5129 20.3797 13.7397C20.2556 13.9665 20.0765 14.1585 19.8588 14.298L2.66616 25.3487C2.43342 25.498 2.1648 25.582 1.88845 25.5918C1.6121 25.6016 1.33819 25.5369 1.09543 25.4045C0.852666 25.2721 0.649988 25.0768 0.508633 24.8392C0.367279 24.6015 0.292452 24.3302 0.291992 24.0537V24.0506Z" fill="white"/>
</svg>
