<svg width="29" height="21" viewBox="0 0 29 21" fill="none" xmlns="http://www.w3.org/2000/svg">
<path fill-rule="evenodd" clip-rule="evenodd" d="M16.5867 2.63035C16.2345 0.605301 13.918 -0.222122 12.3281 0.903671L8.89266 3.34036C8.65948 3.50494 8.38104 3.59324 8.09563 3.59314H4.83152C3.73246 3.59314 2.67841 4.02974 1.90126 4.8069C1.1241 5.58405 0.6875 6.6381 0.6875 7.73716V13.2625C0.6875 14.3616 1.1241 15.4156 1.90126 16.1928C2.67841 16.9699 3.73246 17.4065 4.83152 17.4065H8.09563C8.38166 17.4066 8.66064 17.4954 8.89404 17.6607L12.3281 20.0946C13.9166 21.2218 16.2345 20.3944 16.5867 18.368C17.0315 15.8125 17.2636 13.1824 17.2636 10.4998C17.2636 7.81728 17.0315 5.18859 16.5867 2.63035ZM28.0353 4.83773C27.9946 4.47682 27.8133 4.14647 27.5308 3.9182C27.2483 3.68993 26.8873 3.5821 26.5259 3.61806C26.1645 3.65402 25.8318 3.83087 25.5998 4.11034C25.3678 4.3898 25.2552 4.74938 25.2864 5.11123C25.6424 8.69482 25.6424 12.3049 25.2864 15.8885C25.2659 16.0702 25.2817 16.2543 25.3329 16.4299C25.3841 16.6055 25.4697 16.7692 25.5846 16.9115C25.6996 17.0538 25.8417 17.1718 26.0027 17.2588C26.1636 17.3457 26.3402 17.3998 26.5223 17.4179C26.7043 17.436 26.8881 17.4178 27.0631 17.3643C27.238 17.3108 27.4006 17.223 27.5413 17.1062C27.6821 16.9894 27.7982 16.8457 27.883 16.6836C27.9678 16.5215 28.0196 16.3442 28.0353 16.162C28.4093 12.3965 28.4093 8.60321 28.0353 4.83773ZM22.6135 6.24255C22.6015 6.05966 22.5531 5.881 22.4713 5.71698C22.3895 5.55296 22.2759 5.40685 22.1371 5.28718C21.9982 5.16751 21.837 5.07667 21.6627 5.01994C21.4884 4.96322 21.3046 4.94175 21.1219 4.95678C20.9392 4.97181 20.7614 5.02304 20.5987 5.1075C20.436 5.19195 20.2918 5.30793 20.1744 5.44869C20.057 5.58944 19.9688 5.75216 19.9149 5.92734C19.861 6.10253 19.8425 6.28669 19.8605 6.46909C20.0817 9.15171 20.0817 11.848 19.8605 14.5306C19.8367 14.8923 19.9559 15.2488 20.1926 15.5234C20.4292 15.7979 20.7643 15.9685 21.1256 15.9982C21.4868 16.0279 21.8453 15.9145 22.1236 15.6823C22.402 15.4501 22.5779 15.1179 22.6135 14.7571C22.8474 11.9238 22.8474 9.07593 22.6135 6.24255Z" fill="white"/>
</svg>
