<svg width="35" height="35" viewBox="0 0 35 35" fill="none" xmlns="http://www.w3.org/2000/svg">
<path fill-rule="evenodd" clip-rule="evenodd" d="M19.5867 9.63035C19.2345 7.6053 16.918 6.77788 15.3281 7.90367L11.8927 10.3404C11.6595 10.5049 11.381 10.5932 11.0956 10.5931H7.83152C6.73246 10.5931 5.67841 11.0297 4.90126 11.8069C4.1241 12.5841 3.6875 13.6381 3.6875 14.7372V20.2625C3.6875 21.3616 4.1241 22.4156 4.90126 23.1928C5.67841 23.9699 6.73246 24.4065 7.83152 24.4065H11.0956C11.3817 24.4066 11.6606 24.4954 11.894 24.6607L15.3281 27.0946C16.9166 28.2218 19.2345 27.3944 19.5867 25.368C20.0315 22.8125 20.2636 20.1824 20.2636 17.4998C20.2636 14.8173 20.0315 12.1886 19.5867 9.63035Z" fill="white"/>
<path d="M23.9421 20.0585L27.0006 17.0001L30.059 20.0585M30.059 13.9417L27 17.0001L23.9421 13.9417" stroke="white" stroke-width="1.5" stroke-linecap="round" stroke-linejoin="round"/>
</svg>
