<svg width="27" height="18" viewBox="0 0 27 18" fill="none" xmlns="http://www.w3.org/2000/svg">
<path d="M25.7344 2.85938C26.2969 4.82812 26.2969 9.04688 26.2969 9.04688C26.2969 9.04688 26.2969 13.2188 25.7344 15.2344C25.4531 16.3594 24.5625 17.2031 23.4844 17.4844C21.4688 18 13.5 18 13.5 18C13.5 18 5.48438 18 3.46875 17.4844C2.39062 17.2031 1.5 16.3594 1.21875 15.2344C0.65625 13.2188 0.65625 9.04688 0.65625 9.04688C0.65625 9.04688 0.65625 4.82812 1.21875 2.85938C1.5 1.73438 2.39062 0.84375 3.46875 0.5625C5.48438 0 13.5 0 13.5 0C13.5 0 21.4688 0 23.4844 0.5625C24.5625 0.84375 25.4531 1.73438 25.7344 2.85938ZM10.875 12.8438L17.5312 9.04688L10.875 5.25V12.8438Z" fill="#2E2E2E"/>
</svg>
