<svg width="47" height="10" viewBox="0 0 47 10" fill="none" xmlns="http://www.w3.org/2000/svg">
<path fill-rule="evenodd" clip-rule="evenodd" d="M34.6098 0H27.7705V9.42498H30.2647V1.26869H33.0931C33.7679 1.26869 34.3228 1.82235 34.3228 2.50257V9.42498H36.817V2.2115C36.8139 0.9966 35.8206 0 34.6098 0Z" fill="white"/>
<path fill-rule="evenodd" clip-rule="evenodd" d="M44.7631 0H40.1279C38.9171 0 37.9238 0.9966 37.9238 2.2115V7.21348C37.9238 8.42839 38.9171 9.42498 40.1279 9.42498H44.7631C45.9771 9.42498 46.9672 8.42839 46.9672 7.21348V2.2115C46.9703 0.9966 45.9771 0 44.7631 0ZM43.2464 1.26869C43.9212 1.26869 44.4762 1.82235 44.4762 2.50257V6.92558C44.4762 7.60263 43.9244 8.15946 43.2464 8.15946H41.6477C40.973 8.15946 40.418 7.6058 40.418 6.92558V2.50257C40.418 1.82552 40.9698 1.26869 41.6477 1.26869H43.2464Z" fill="white"/>
<path fill-rule="evenodd" clip-rule="evenodd" d="M12.3572 0H17.85V1.26869H13.8738C13.1991 1.26869 12.6473 1.82235 12.6473 2.50257V2.74302C12.6473 3.42008 13.1991 3.97691 13.8738 3.97691H17.85V5.24559H12.6473V6.92558C12.6473 7.60263 13.1991 8.15946 13.8738 8.15946H17.85V9.42815H12.3572C11.1463 9.42815 10.1531 8.43155 10.1531 7.21665V2.2115C10.1531 0.996599 11.1463 0 12.3572 0Z" fill="white"/>
<path fill-rule="evenodd" clip-rule="evenodd" d="M21.1679 0H26.6608V1.26869H22.6846C22.0098 1.26869 21.4549 1.82235 21.4549 2.50257V6.92558C21.4549 7.60263 22.0067 8.15946 22.6846 8.15946H26.6608V9.42815H21.1679C19.954 9.42815 18.9639 8.43155 18.9639 7.21665V2.2115C18.9639 0.996599 19.954 0 21.1679 0Z" fill="white"/>
<path fill-rule="evenodd" clip-rule="evenodd" d="M9.0402 0H0V1.26869H3.27617V9.42498H5.77034V2.50257C5.77034 1.82552 6.32215 1.27185 6.99693 1.26869H9.0465V0H9.0402Z" fill="white"/>
</svg>
