<svg width="272" height="55" viewBox="0 0 272 55" fill="none" xmlns="http://www.w3.org/2000/svg">
<path fill-rule="evenodd" clip-rule="evenodd" d="M200.433 0H160.824V54.9815H175.269V7.40101H191.649C195.557 7.40101 198.771 10.6309 198.771 14.599V54.9815H213.215V12.901C213.197 5.81376 207.445 0 200.433 0Z" fill="#0064FE"/>
<path fill-rule="evenodd" clip-rule="evenodd" d="M259.235 0H232.391C225.379 0 219.627 5.81376 219.627 12.901V42.0805C219.627 49.1678 225.379 54.9815 232.391 54.9815H259.235C266.266 54.9815 272 49.1678 272 42.0805V12.901C272.018 5.81376 266.266 0 259.235 0ZM250.452 7.40101C254.36 7.40101 257.573 10.6309 257.573 14.599V40.401C257.573 44.3507 254.378 47.599 250.452 47.599H241.193C237.285 47.599 234.071 44.3691 234.071 40.401V14.599C234.071 10.6493 237.267 7.40101 241.193 7.40101H250.452Z" fill="#0064FE"/>
<path fill-rule="evenodd" clip-rule="evenodd" d="M71.5643 0H103.375V7.40101H80.3479C76.44 7.40101 73.2443 10.6309 73.2443 14.599V16.0017C73.2443 19.9513 76.44 23.1997 80.3479 23.1997H103.375V30.6007H73.2443V40.401C73.2443 44.3507 76.44 47.599 80.3479 47.599H103.375V55H71.5643C64.5521 55 58.7998 49.1862 58.7998 42.099V12.901C58.7998 5.81376 64.5521 0 71.5643 0Z" fill="#0064FE"/>
<path fill-rule="evenodd" clip-rule="evenodd" d="M122.585 0H154.396V7.40101H131.368C127.461 7.40101 124.247 10.6309 124.247 14.599V40.401C124.247 44.3507 127.442 47.599 131.368 47.599H154.396V55H122.585C115.554 55 109.82 49.1862 109.82 42.099V12.901C109.82 5.81376 115.554 0 122.585 0Z" fill="#0064FE"/>
<path fill-rule="evenodd" clip-rule="evenodd" d="M52.3545 0H0V7.40101H18.9733V54.9815H33.4178V14.599C33.4178 10.6493 36.6135 7.41946 40.5214 7.40101H52.3911V0H52.3545Z" fill="#0064FE"/>
</svg>
