<svg width="650" height="130" viewBox="0 0 650 130" fill="none" xmlns="http://www.w3.org/2000/svg">
<g clip-path="url(#clip0_38_576)">
<path fill-rule="evenodd" clip-rule="evenodd" d="M476.922 -0.172852H382.301V128.917H416.808V17.2038H455.938C465.274 17.2038 472.952 24.7871 472.952 34.1038V128.917H507.459V30.1171C507.415 13.4771 493.673 -0.172852 476.922 -0.172852Z" fill="#0064FE"/>
<path fill-rule="evenodd" clip-rule="evenodd" d="M617.08 -0.172852H552.952C536.201 -0.172852 522.459 13.4771 522.459 30.1171V98.6271C522.459 115.267 536.201 128.917 552.952 128.917H617.08C633.875 128.917 647.573 115.267 647.573 98.6271V30.1171C647.617 13.4771 633.875 -0.172852 617.08 -0.172852ZM596.097 17.2038C605.432 17.2038 613.11 24.7871 613.11 34.1038V94.6838C613.11 103.957 605.476 111.584 596.097 111.584H573.979C564.644 111.584 556.966 104 556.966 94.6838V34.1038C556.966 24.8305 564.6 17.2038 573.979 17.2038H596.097Z" fill="#0064FE"/>
<path fill-rule="evenodd" clip-rule="evenodd" d="M169.821 -0.172852H245.815V17.2038H190.805C181.469 17.2038 173.835 24.7871 173.835 34.1038V37.3972C173.835 46.6705 181.469 54.2971 190.805 54.2971H245.815V71.6738H173.835V94.6838C173.835 103.957 181.469 111.584 190.805 111.584H245.815V128.96H169.821C153.07 128.96 139.328 115.31 139.328 98.6705V30.1171C139.328 13.4771 153.07 -0.172852 169.821 -0.172852Z" fill="#0064FE"/>
<path fill-rule="evenodd" clip-rule="evenodd" d="M291.308 -0.172852H367.301V17.2038H312.291C302.955 17.2038 295.278 24.7871 295.278 34.1038V94.6838C295.278 103.957 302.912 111.584 312.291 111.584H367.301V128.96H291.308C274.512 128.96 260.814 115.31 260.814 98.6705V30.1171C260.814 13.4771 274.512 -0.172852 291.308 -0.172852Z" fill="#0064FE"/>
<path fill-rule="evenodd" clip-rule="evenodd" d="M124.241 -0.172852H-0.829102V17.2038H44.4964V128.917H79.0031V34.1038C79.0031 24.8305 86.6373 17.2471 95.9729 17.2038H124.329V-0.172852H124.241Z" fill="#0064FE"/>
</g>
<defs>
<clipPath id="clip0_38_576">
<rect width="650" height="130" fill="white"/>
</clipPath>
</defs>
</svg>
