<svg width="74" height="74" viewBox="0 0 74 74" fill="none" xmlns="http://www.w3.org/2000/svg">
<path d="M29.292 48.0506V25.9493C29.2925 25.6727 29.3673 25.4014 29.5086 25.1638C29.65 24.9261 29.8527 24.7308 30.0954 24.5984C30.3382 24.466 30.6121 24.4013 30.8884 24.4111C31.1648 24.421 31.4334 24.5049 31.6662 24.6543L48.8588 35.7018C49.0765 35.8413 49.2556 36.0333 49.3797 36.2601C49.5038 36.487 49.5688 36.7414 49.5688 36.9999C49.5688 37.2585 49.5038 37.5129 49.3797 37.7397C49.2556 37.9665 49.0765 38.1585 48.8588 38.298L31.6662 49.3487C31.4334 49.498 31.1648 49.582 30.8884 49.5918C30.6121 49.6016 30.3382 49.5369 30.0954 49.4045C29.8527 49.2721 29.65 49.0768 29.5086 48.8392C29.3673 48.6015 29.2925 48.3302 29.292 48.0537V48.0506Z" fill="white"/>
<path d="M3.08301 36.9997C3.08301 18.2684 18.2684 3.08301 36.9997 3.08301C55.7309 3.08301 70.9163 18.2684 70.9163 36.9997C70.9163 55.7309 55.7309 70.9163 36.9997 70.9163C18.2684 70.9163 3.08301 55.7309 3.08301 36.9997ZM36.9997 7.70801C29.231 7.70801 21.7806 10.7941 16.2873 16.2873C10.7941 21.7806 7.70801 29.231 7.70801 36.9997C7.70801 44.7683 10.7941 52.2188 16.2873 57.712C21.7806 63.2053 29.231 66.2913 36.9997 66.2913C44.7683 66.2913 52.2188 63.2053 57.712 57.712C63.2053 52.2188 66.2913 44.7683 66.2913 36.9997C66.2913 29.231 63.2053 21.7806 57.712 16.2873C52.2188 10.7941 44.7683 7.70801 36.9997 7.70801Z" fill="white"/>
</svg>
